<svg width="83" height="61" viewBox="0 0 83 61" fill="none" xmlns="http://www.w3.org/2000/svg">
<path fill-rule="evenodd" clip-rule="evenodd" d="M4.81792 0C2.15706 0 0 2.15706 0 4.81792V19.2717C0 21.9325 2.15706 24.0896 4.81792 24.0896H71.4658C74.1267 24.0896 76.2837 21.9325 76.2837 19.2717V4.81792C76.2837 2.15706 74.1267 0 71.4658 0H4.81792ZM72.2688 4.01493H4.01493V20.0747H72.2688V4.01493Z" fill="black"/>
<path d="M78.2912 32.1195C80.5086 32.1195 82.3061 30.3219 82.3061 28.1045V14.0523C82.3061 11.8349 80.5086 10.0373 78.2912 10.0373V32.1195Z" fill="black"/>
<path d="M36.1344 32.1195C36.1344 29.9021 37.932 28.1045 40.1493 28.1045H78.2912V32.1195H36.1344Z" fill="black"/>
<path d="M33.6297 36.1058H42.6633V56.1805C42.6633 58.3979 40.8657 60.1954 38.6483 60.1954C36.431 60.1954 33.6297 58.3979 33.6297 56.1805V36.1058Z" fill="black"/>
<path d="M36.1344 32.1195H40.1493V36.1344H36.1344V32.1195Z" fill="black"/>
<path d="M76.2837 10.0373H78.2912V14.0523H76.2837V10.0373Z" fill="black"/>
</svg>
